<?xml version="1.0" standalone="yes"?><svg xmlns="http://www.w3.org/2000/svg" width="90" height="20" viewBox="0 0 90 20" fill="none" style="zoom: 4;"><g clip-path="url(#clip0_375_7072)"><path d="M87.6238,0 H2.03916 C0.912963,0 0,0.913441 0,2.04023 V17.9598 C0,19.0866 0.912963,20 2.03916,20 H87.6238 C88.75,20 89.6629,19.0866 89.6629,17.9598 V2.04023 C89.6629,0.913441 88.75,0 87.6238,0 " fill="#F3B601"></path><path d="M87.6148 0.408203H2.04861C1.1445 0.408203 0.408356 1.14473 0.408356 2.04931V17.95C0.408356 18.8545 1.1445 19.5911 2.04861 19.5911H87.6146C88.5187 19.5911 89.2548 18.8545 89.2548 17.95V2.04957C89.2548 1.145 88.5187 0.408466 87.6146 0.408466L87.6148 0.408203ZM88.8294 17.9502C88.8294 18.6229 88.2848 19.1657 87.6146 19.1657H2.04861C1.37623 19.1657 0.833771 18.6229 0.833771 17.9502V2.04957C0.833771 1.37685 1.37623 0.834104 2.04861 0.834104H87.6146C88.2846 0.834104 88.8294 1.37685 88.8294 2.04957V17.9502Z" fill="#1D1D1B"></path><path d="M9.52395 0.833984V19.1656H2.04861C1.37623 19.1656 0.833771 18.6228 0.833771 17.9501V2.04946C0.833771 1.37673 1.37623 0.833984 2.04861 0.833984H9.52395Z" fill="#003CAA"></path><path d="M5.17953 2.46826L5.27007 2.74318L5.55954 2.74449L5.32623 2.91596L5.41441 3.19166L5.17953 3.02256L4.94464 3.19166L5.03282 2.91596L4.79951 2.74449L5.08872 2.74318L5.17953 2.46826Z" fill="#FDCB00"></path><path d="M3.81746 2.84619L3.908 3.12111L4.19748 3.12242L3.96417 3.29362L4.05235 3.56959L3.81746 3.40049L3.58258 3.56959L3.67076 3.29362L3.43719 3.12242L3.72666 3.12111L3.81746 2.84619Z" fill="#FDCB00"></path><path d="M2.80261 3.81348L2.89342 4.0884L3.18289 4.08971L2.94932 4.26117L3.0375 4.53688L2.80261 4.36778L2.56773 4.53688L2.65591 4.26117L2.4226 4.08971L2.71207 4.0884L2.80261 3.81348Z" fill="#FDCB00"></path><path d="M2.39502 5.25391L2.48557 5.52909L2.77504 5.5304L2.54173 5.7016L2.62991 5.97731L2.39502 5.80821L2.16014 5.97731L2.24832 5.7016L2.01475 5.5304L2.30422 5.52909L2.39502 5.25391Z" fill="#FDCB00"></path><path d="M2.85064 6.58691L2.94144 6.8621L3.23092 6.86341L2.99734 7.03461L3.08552 7.31032L2.85064 7.14122L2.61576 7.31032L2.70394 7.03461L2.47063 6.86341L2.7601 6.8621L2.85064 6.58691Z" fill="#FDCB00"></path><path d="M3.76943 7.5542L3.85997 7.82912L4.14944 7.83043L3.91613 8.00163L4.00431 8.27734L3.76943 8.10824L3.53454 8.27734L3.62272 8.00163L3.38915 7.83043L3.67862 7.82912L3.76943 7.5542Z" fill="#FDCB00"></path><path d="M5.17953 8.04004L5.27007 8.31522L5.55954 8.31653L5.32623 8.48773L5.41441 8.76344L5.17953 8.59434L4.94464 8.76344L5.03282 8.48773L4.79951 8.31653L5.08872 8.31522L5.17953 8.04004Z" fill="#FDCB00"></path><path d="M6.58963 7.5542L6.68017 7.82912L6.96964 7.83043L6.73633 8.00163L6.82451 8.27734L6.58963 8.10824L6.35475 8.27734L6.44293 8.00163L6.20962 7.83043L6.49883 7.82912L6.58963 7.5542Z" fill="#FDCB00"></path><path d="M7.50816 6.58691L7.59896 6.8621L7.88817 6.86341L7.65486 7.03461L7.74304 7.31032L7.50816 7.14122L7.27327 7.31032L7.36145 7.03461L7.12814 6.86341L7.41762 6.8621L7.50816 6.58691Z" fill="#FDCB00"></path><path d="M7.964 5.25391L8.05455 5.52909L8.34402 5.5304L8.11071 5.7016L8.19889 5.97731L7.964 5.80821L7.72912 5.97731L7.8173 5.7016L7.58399 5.5304L7.8732 5.52909L7.964 5.25391Z" fill="#FDCB00"></path><path d="M7.55619 3.81348L7.647 4.0884L7.9362 4.08971L7.7029 4.26117L7.79107 4.53688L7.55619 4.36778L7.32131 4.53688L7.40949 4.26117L7.17618 4.08971L7.46565 4.0884L7.55619 3.81348Z" fill="#FDCB00"></path><path d="M6.5416 2.84619L6.63214 3.12111L6.92161 3.12242L6.6883 3.29362L6.77648 3.56959L6.5416 3.40049L6.30671 3.56959L6.39489 3.29362L6.16158 3.12242L6.45079 3.12111L6.5416 2.84619Z" fill="#FDCB00"></path><path d="M2.68582 16.2538V13.1577H3.10599L4.73128 15.5884V13.1577H5.12389V16.2538H4.70372L3.07843 13.821V16.2538H2.68582Z" fill="#F6F6F6"></path><path d="M5.73853 16.2538V13.1577H6.14794V15.8883H7.67193V16.2535H5.73853V16.2538Z" fill="#F6F6F6"></path><path d="M17.563004,6.162003 C19.663002,6.162003 20.875,7.662003 20.875,10.265999 C20.875,12.869999 19.663002,14.369999 17.563004,14.369999 C15.462997,14.369999 14.250999,12.869999 14.250999,10.265999 C14.250999,7.662003 15.462997,6.162003 17.563004,6.162003 M17.563004,7.650002 C16.518997,7.650002 15.943001,8.598 15.943001,10.265999 C15.943001,11.933998 16.518997,12.882 17.563004,12.882 C18.607002,12.882 19.182999,11.933998 19.182999,10.265999 C19.182999,8.598 18.607002,7.650002 17.563004,7.650002 M25.867699,6.162003 C27.967697,6.162003 29.179703,7.662003 29.179703,10.265999 C29.179703,12.869999 27.967697,14.369999 25.867699,14.369999 C23.7677,14.369999 22.555702,12.869999 22.555702,10.265999 C22.555702,7.662003 23.7677,6.162003 25.867699,6.162003 M25.867699,7.650002 C24.8237,7.650002 24.247696,8.598 24.247696,10.265999 C24.247696,11.933998 24.8237,12.882 25.867699,12.882 C26.911697,12.882 27.487701,11.933998 27.487701,10.265999 C27.487701,8.598 26.911697,7.650002 25.867699,7.650002 M30.776299,11.753998 V10.169998 H34.208298 V11.753998 H30.776299 M41.970001,14.25 L41.43,12.905998 H37.770004 L37.229996,14.25 H35.369995 L38.765999,6.281998 H40.481995 L43.877998,14.25 H41.970001 M39.606003,8.321999 H39.582001 L38.369995,11.382 H40.830002 L39.606003,8.321999 M51.317703,14.25 L50.777695,12.905998 H47.117699 L46.577698,14.25 H44.717697 L48.113701,6.281998 H49.829697 L53.2257,14.25 H51.317703 M48.953705,8.321999 H48.929703 L47.717697,11.382 H50.177704 L48.953705,8.321999 M60.665298,14.25 L60.125305,12.905998 H56.465302 L55.925301,14.25 H54.0653 L57.461304,6.281998 H59.177299 L62.573303,14.25 H60.665298 M58.3013,8.321999 H58.277298 L57.0653,11.382 H59.525299 L58.3013,8.321999 M63.737305,11.753998 V10.169998 H67.169296 V11.753998 H63.737305 M72.074699,6.162003 C74.174698,6.162003 75.386703,7.662003 75.386703,10.265999 C75.386703,12.869999 74.174698,14.369999 72.074699,14.369999 C69.974701,14.369999 68.762703,12.869999 68.762703,10.265999 C68.762703,7.662003 69.974701,6.162003 72.074699,6.162003 M72.074699,7.650002 C71.030701,7.650002 70.454697,8.598 70.454697,10.265999 C70.454697,11.933998 71.030701,12.882 72.074699,12.882 C73.118698,12.882 73.694702,11.933998 73.694702,10.265999 C73.694702,8.598 73.118698,7.650002 72.074699,7.650002 M80.379395,6.162003 C82.479401,6.162003 83.691406,7.662003 83.691406,10.265999 C83.691406,12.869999 82.479401,14.369999 80.379395,14.369999 C78.279404,14.369999 77.067398,12.869999 77.067398,10.265999 C77.067398,7.662003 78.279404,6.162003 80.379395,6.162003 M80.379395,7.650002 C79.335403,7.650002 78.759399,8.598 78.759399,10.265999 C78.759399,11.933998 79.335403,12.882 80.379395,12.882 C81.423401,12.882 81.99939,11.933998 81.99939,10.265999 C81.99939,8.598 81.423401,7.650002 80.379395,7.650002 " visibility="hidden" fill="#171616"></path></g><defs><clipPath id="clip0_375_7072"><rect width="89.6629" height="20" fill="white"></rect></clipPath></defs></svg>